<svg width="32" height="32" viewBox="0 0 32 32" fill="none" xmlns="http://www.w3.org/2000/svg">
<rect x="0.5" y="0.5" width="31" height="31" stroke="black"/>
<circle cx="16" cy="16" r="16" fill="#E3E4E6"/>
<path fill-rule="evenodd" clip-rule="evenodd" d="M17.0128 8.47055C17.0128 9.75005 16.559 10.7873 15.9992 10.7873C15.4394 10.7873 14.9856 9.75005 14.9856 8.47055C14.9856 7.19105 15.4394 6.15381 15.9992 6.15381C16.559 6.15381 17.0128 7.19105 17.0128 8.47055ZM16.299 12.3295C16.1831 12.0687 15.8134 12.0672 15.6954 12.3271L14.6903 14.5403C14.6571 14.6135 14.5984 14.672 14.5252 14.7051L12.324 15.6988C12.0644 15.8161 12.0644 16.1848 12.324 16.302L14.5252 17.2957C14.5984 17.3288 14.6571 17.3874 14.6903 17.4605L15.6954 19.6737C15.8134 19.9336 16.1831 19.9321 16.299 19.6713L17.2805 17.4629C17.3137 17.3883 17.3733 17.3286 17.4478 17.2953L19.6682 16.3025C19.9293 16.1857 19.9293 15.8151 19.6682 15.6984L17.4478 14.7056C17.3733 14.6723 17.3137 14.6125 17.2805 14.5379L16.299 12.3295ZM19.6868 12.3133C20.0826 12.7092 21.1369 12.2966 22.0417 11.3919C22.9464 10.4871 23.359 9.43281 22.9631 9.03698C22.5673 8.64116 21.513 9.05372 20.6082 9.95846C19.7035 10.8632 19.2909 11.9175 19.6868 12.3133ZM23.5294 17.0139C22.2499 17.0139 21.2127 16.5601 21.2127 16.0003C21.2127 15.4405 22.2499 14.9867 23.5294 14.9867C24.8089 14.9867 25.8462 15.4405 25.8462 16.0003C25.8462 16.5601 24.8089 17.0139 23.5294 17.0139ZM19.6848 19.6849C19.289 20.0807 19.7016 21.135 20.6063 22.0398C21.5111 22.9445 22.5654 23.3571 22.9612 22.9613C23.357 22.5654 22.9445 21.5111 22.0397 20.6064C21.135 19.7016 20.0807 19.2891 19.6848 19.6849ZM17.0128 23.5294C17.0128 24.8089 16.559 25.8462 15.9992 25.8462C15.4394 25.8462 14.9856 24.8089 14.9856 23.5294C14.9856 22.2499 15.4394 21.2127 15.9992 21.2127C16.559 21.2127 17.0128 22.2499 17.0128 23.5294ZM9.03773 22.9624C9.43355 23.3582 10.4879 22.9457 11.3926 22.0409C12.2974 21.1362 12.7099 20.0818 12.3141 19.686C11.9183 19.2902 10.8639 19.7028 9.9592 20.6075C9.05446 21.5122 8.6419 22.5666 9.03773 22.9624ZM8.47055 17.0139C7.19105 17.0139 6.15381 16.5601 6.15381 16.0003C6.15381 15.4405 7.19105 14.9867 8.47055 14.9867C9.75005 14.9867 10.7873 15.4405 10.7873 16.0003C10.7873 16.5601 9.75005 17.0139 8.47055 17.0139ZM9.03821 9.03766C8.64238 9.43348 9.05494 10.4878 9.95969 11.3925C10.8644 12.2973 11.9188 12.7098 12.3146 12.314C12.7104 11.9182 12.2978 10.8639 11.3931 9.95913C10.4884 9.05439 9.43404 8.64183 9.03821 9.03766Z" fill="#A4A6AA"/>
</svg>
